<mxfile host="app.diagrams.net" agent="Mozilla/5.0 (Windows NT 10.0; Win64; x64) AppleWebKit/537.36 (KHTML, like Gecko) Chrome/132.0.0.0 Safari/537.36" version="26.0.12">
  <diagram name="Página-1" id="ZG89Vh-_nIyCFlYWtU8B">
    <mxGraphModel dx="3772" dy="2450" grid="1" gridSize="10" guides="1" tooltips="1" connect="1" arrows="1" fold="1" page="1" pageScale="1" pageWidth="1169" pageHeight="827" math="0" shadow="0">
      <root>
        <mxCell id="0" />
        <mxCell id="1" parent="0" />
        <mxCell id="_icEVC4zY8jzHrzMwm_u-8" value="" style="edgeStyle=none;curved=1;rounded=0;orthogonalLoop=1;jettySize=auto;html=1;fontSize=12;startSize=8;endSize=8;movable=1;resizable=1;rotatable=1;deletable=1;editable=1;locked=0;connectable=1;" parent="1" source="_icEVC4zY8jzHrzMwm_u-4" target="_icEVC4zY8jzHrzMwm_u-7" edge="1">
          <mxGeometry relative="1" as="geometry" />
        </mxCell>
        <mxCell id="_icEVC4zY8jzHrzMwm_u-4" value="m = 0" style="rounded=0;whiteSpace=wrap;html=1;fillColor=#dae8fc;strokeColor=#6c8ebf;movable=1;resizable=1;rotatable=1;deletable=1;editable=1;locked=0;connectable=1;" parent="1" vertex="1">
          <mxGeometry x="-1863" y="-1400" width="120" height="60" as="geometry" />
        </mxCell>
        <mxCell id="_icEVC4zY8jzHrzMwm_u-6" value="" style="edgeStyle=none;curved=1;rounded=0;orthogonalLoop=1;jettySize=auto;html=1;fontSize=12;startSize=8;endSize=8;movable=1;resizable=1;rotatable=1;deletable=1;editable=1;locked=0;connectable=1;" parent="1" source="_icEVC4zY8jzHrzMwm_u-2" target="_icEVC4zY8jzHrzMwm_u-4" edge="1">
          <mxGeometry relative="1" as="geometry" />
        </mxCell>
        <mxCell id="_icEVC4zY8jzHrzMwm_u-2" value="INÍCIO" style="rounded=1;whiteSpace=wrap;html=1;fillColor=#dae8fc;strokeColor=#6c8ebf;movable=1;resizable=1;rotatable=1;deletable=1;editable=1;locked=0;connectable=1;" parent="1" vertex="1">
          <mxGeometry x="-1863" y="-1500" width="120" height="60" as="geometry" />
        </mxCell>
        <mxCell id="_icEVC4zY8jzHrzMwm_u-13" style="edgeStyle=none;curved=1;rounded=0;orthogonalLoop=1;jettySize=auto;html=1;fontSize=12;startSize=8;endSize=8;movable=1;resizable=1;rotatable=1;deletable=1;editable=1;locked=0;connectable=1;" parent="1" source="_icEVC4zY8jzHrzMwm_u-7" target="_icEVC4zY8jzHrzMwm_u-16" edge="1">
          <mxGeometry relative="1" as="geometry">
            <mxPoint x="-1703" y="-1260" as="targetPoint" />
          </mxGeometry>
        </mxCell>
        <mxCell id="_icEVC4zY8jzHrzMwm_u-14" value="NÃO" style="edgeLabel;html=1;align=center;verticalAlign=middle;resizable=1;points=[];fontSize=12;labelBackgroundColor=none;movable=1;rotatable=1;deletable=1;editable=1;locked=0;connectable=1;" parent="_icEVC4zY8jzHrzMwm_u-13" vertex="1" connectable="0">
          <mxGeometry x="-0.2" y="3" relative="1" as="geometry">
            <mxPoint y="-7" as="offset" />
          </mxGeometry>
        </mxCell>
        <mxCell id="my3Ilnrd2uVODtXXJCNQ-4" style="edgeStyle=none;curved=1;rounded=0;orthogonalLoop=1;jettySize=auto;html=1;entryDx=0;entryDy=0;fontSize=12;startSize=8;endSize=8;movable=1;resizable=1;rotatable=1;deletable=1;editable=1;locked=0;connectable=1;" edge="1" parent="1" source="_icEVC4zY8jzHrzMwm_u-7" target="my3Ilnrd2uVODtXXJCNQ-1">
          <mxGeometry relative="1" as="geometry" />
        </mxCell>
        <mxCell id="my3Ilnrd2uVODtXXJCNQ-8" value="SIM" style="edgeLabel;html=1;align=center;verticalAlign=middle;resizable=1;points=[];fontSize=12;movable=1;rotatable=1;deletable=1;editable=1;locked=0;connectable=1;labelBackgroundColor=none;" vertex="1" connectable="0" parent="my3Ilnrd2uVODtXXJCNQ-4">
          <mxGeometry x="-0.05" y="2" relative="1" as="geometry">
            <mxPoint x="11" as="offset" />
          </mxGeometry>
        </mxCell>
        <mxCell id="_icEVC4zY8jzHrzMwm_u-7" value="m &amp;lt;= 100" style="rhombus;whiteSpace=wrap;html=1;rounded=0;fillColor=#dae8fc;strokeColor=#6c8ebf;movable=1;resizable=1;rotatable=1;deletable=1;editable=1;locked=0;connectable=1;" parent="1" vertex="1">
          <mxGeometry x="-1843" y="-1300" width="80" height="80" as="geometry" />
        </mxCell>
        <mxCell id="_icEVC4zY8jzHrzMwm_u-11" style="edgeStyle=none;curved=0;rounded=0;orthogonalLoop=1;jettySize=auto;html=1;entryDx=0;entryDy=0;fontSize=12;startSize=8;endSize=8;exitDx=0;exitDy=0;movable=1;resizable=1;rotatable=1;deletable=1;editable=1;locked=0;connectable=1;" parent="1" source="_icEVC4zY8jzHrzMwm_u-9" target="_icEVC4zY8jzHrzMwm_u-7" edge="1">
          <mxGeometry relative="1" as="geometry">
            <Array as="points">
              <mxPoint x="-1913" y="-1020" />
              <mxPoint x="-1913" y="-1260" />
            </Array>
          </mxGeometry>
        </mxCell>
        <mxCell id="_icEVC4zY8jzHrzMwm_u-12" value="m = m + 20" style="edgeLabel;html=1;align=center;verticalAlign=middle;resizable=1;points=[];fontSize=12;labelBackgroundColor=none;movable=1;rotatable=1;deletable=1;editable=1;locked=0;connectable=1;" parent="_icEVC4zY8jzHrzMwm_u-11" vertex="1" connectable="0">
          <mxGeometry x="-0.05" y="-1" relative="1" as="geometry">
            <mxPoint x="-38" y="1" as="offset" />
          </mxGeometry>
        </mxCell>
        <mxCell id="_icEVC4zY8jzHrzMwm_u-9" value="&quot;múltiplo de 20 = &quot;, m" style="shape=document;whiteSpace=wrap;html=1;boundedLbl=1;rounded=0;fillColor=#dae8fc;strokeColor=#6c8ebf;movable=1;resizable=1;rotatable=1;deletable=1;editable=1;locked=0;connectable=1;" parent="1" vertex="1">
          <mxGeometry x="-1863" y="-1060" width="120" height="80" as="geometry" />
        </mxCell>
        <mxCell id="_icEVC4zY8jzHrzMwm_u-16" value="FIM" style="rounded=1;whiteSpace=wrap;html=1;fillColor=#dae8fc;strokeColor=#6c8ebf;movable=1;resizable=1;rotatable=1;deletable=1;editable=1;locked=0;connectable=1;" parent="1" vertex="1">
          <mxGeometry x="-1713" y="-1290" width="120" height="60" as="geometry" />
        </mxCell>
        <mxCell id="my3Ilnrd2uVODtXXJCNQ-5" value="" style="edgeStyle=none;curved=1;rounded=0;orthogonalLoop=1;jettySize=auto;html=1;fontSize=12;startSize=8;endSize=8;movable=1;resizable=1;rotatable=1;deletable=1;editable=1;locked=0;connectable=1;" edge="1" parent="1" source="my3Ilnrd2uVODtXXJCNQ-1" target="_icEVC4zY8jzHrzMwm_u-9">
          <mxGeometry relative="1" as="geometry" />
        </mxCell>
        <mxCell id="my3Ilnrd2uVODtXXJCNQ-9" value="SIM" style="edgeLabel;html=1;align=center;verticalAlign=middle;resizable=1;points=[];fontSize=12;movable=1;rotatable=1;deletable=1;editable=1;locked=0;connectable=1;labelBackgroundColor=none;" vertex="1" connectable="0" parent="my3Ilnrd2uVODtXXJCNQ-5">
          <mxGeometry x="-0.25" y="1" relative="1" as="geometry">
            <mxPoint x="12" as="offset" />
          </mxGeometry>
        </mxCell>
        <mxCell id="my3Ilnrd2uVODtXXJCNQ-6" style="edgeStyle=none;curved=1;rounded=0;orthogonalLoop=1;jettySize=auto;html=1;fontSize=12;startSize=8;endSize=8;movable=1;resizable=1;rotatable=1;deletable=1;editable=1;locked=0;connectable=1;" edge="1" parent="1" source="my3Ilnrd2uVODtXXJCNQ-1">
          <mxGeometry relative="1" as="geometry">
            <mxPoint x="-1910" y="-1140" as="targetPoint" />
          </mxGeometry>
        </mxCell>
        <mxCell id="my3Ilnrd2uVODtXXJCNQ-7" value="NÃO" style="edgeLabel;html=1;align=center;verticalAlign=middle;resizable=1;points=[];fontSize=12;movable=1;rotatable=1;deletable=1;editable=1;locked=0;connectable=1;labelBackgroundColor=none;" vertex="1" connectable="0" parent="my3Ilnrd2uVODtXXJCNQ-6">
          <mxGeometry x="-0.194" y="1" relative="1" as="geometry">
            <mxPoint y="-11" as="offset" />
          </mxGeometry>
        </mxCell>
        <mxCell id="my3Ilnrd2uVODtXXJCNQ-1" value="m &amp;lt;&amp;gt; 0" style="rhombus;whiteSpace=wrap;html=1;movable=1;resizable=1;rotatable=1;deletable=1;editable=1;locked=0;connectable=1;fillColor=#dae8fc;strokeColor=#6c8ebf;" vertex="1" parent="1">
          <mxGeometry x="-1843" y="-1180" width="80" height="80" as="geometry" />
        </mxCell>
      </root>
    </mxGraphModel>
  </diagram>
</mxfile>
